Coordinates
version=1
nRows=21
nColumns=12
inDegrees=yes

Units are S.I. units (second, meters, Newtons, ...)
Angles are in degrees

endheader
time	SC_y	SC_z	SC_x	AC_y	AC_z	AC_x	GH_y	GH_z	GH_yy	EL_x	PS_y
       0.0              -36.93          12.77          13.58          46.96          7.912         -16.23         -105.0          46.35         -106.2          92.07          81.59
   0.01874              -36.92          12.77          13.58          46.96          7.911         -16.23         -104.9          46.35         -106.2          92.06          81.59
   0.03748              -36.92          12.77          13.59          46.96           7.91         -16.23         -104.9          46.34         -106.2          92.06           81.6
   0.05622              -36.92          12.77          13.59          46.96           7.91         -16.22         -104.9          46.34         -106.1          92.05          81.61
   0.07497              -36.92          12.77          13.59          46.95          7.909         -16.22         -104.8          46.34         -106.1          92.04          81.62
   0.09371              -36.91          12.77           13.6          46.95          7.908         -16.22         -104.8          46.33         -106.0          92.03          81.63
    0.1124              -36.91          12.78           13.6          46.95          7.907         -16.22         -104.7          46.33         -106.0          92.02          81.64
    0.1312              -36.91          12.78          13.61          46.95          7.906         -16.21         -104.6          46.32         -105.9          92.01          81.64
    0.1499              -36.91          12.78          13.61          46.95          7.905         -16.21         -104.6          46.32         -105.9           92.0          81.66
    0.1687               -36.9          12.78          13.61          46.95          7.904         -16.21         -104.5          46.31         -105.8          91.99          81.67
    0.1874               -36.9          12.78          13.62          46.94          7.903         -16.21         -104.4          46.31         -105.8          91.98          81.68
    0.2062              -36.89          12.79          13.63          46.94          7.902          -16.2         -104.3           46.3         -105.7          91.96          81.69
    0.2249              -36.89          12.79          13.63          46.94            7.9          -16.2         -104.3          46.29         -105.6          91.95           81.7
    0.2436              -36.88          12.79          13.64          46.94          7.899          -16.2         -104.2          46.29         -105.5          91.93          81.72
    0.2624              -36.88           12.8          13.64          46.93          7.897         -16.19         -104.1          46.28         -105.5          91.92          81.74
    0.2811              -36.87           12.8          13.65          46.93          7.896         -16.19         -104.0          46.27         -105.4           91.9          81.75
    0.2999              -36.87           12.8          13.66          46.93          7.894         -16.18         -103.8          46.26         -105.3          91.88          81.77
    0.3186              -36.86          12.81          13.67          46.92          7.892         -16.18         -103.7          46.25         -105.2          91.86          81.79
    0.3373              -36.85          12.81          13.68          46.92          7.889         -16.17         -103.6          46.24         -105.0          91.83          81.82
    0.3561              -36.85          12.82          13.69          46.91          7.887         -16.16         -103.4          46.23         -104.9          91.81          81.84
    0.3748              -36.84          12.82           13.7          46.91          7.884         -16.16         -103.2          46.22         -104.8          91.78          81.87
